<svg style="width: 100%; height: auto;" viewBox="0 0 61 48" fill="none" xmlns="http://www.w3.org/2000/svg">
<g fill="#0d9488">
<path d="M54.9297 46.8438C55.2474 46.7448 55.4688 46.6172 55.5938 46.4609C55.7708 46.2526 55.9844 45.8776 56.2344 45.3359L56.4141 44.9219L52.1562 36.6562H55.7109L57.9297 41.375L59.2109 38.3828C59.4453 37.8359 59.599 37.4193 59.6719 37.1328C59.7448 36.8464 59.8151 36.6719 59.8828 36.6094C59.9557 36.5469 60.0417 36.5156 60.1406 36.5156C60.2448 36.5156 60.3255 36.5469 60.3828 36.6094C60.4401 36.6719 60.4688 36.7344 60.4688 36.7969C60.4688 36.8594 60.4609 36.9271 60.4453 37C60.4349 37.0677 60.4089 37.1615 60.3672 37.2812C60.3307 37.3958 60.276 37.5417 60.2031 37.7188L56.9609 45.2344C56.5755 46.1406 56.2057 46.7786 55.8516 47.1484C55.5495 47.4766 55.2422 47.6406 54.9297 47.6406C54.6224 47.6406 54.4688 47.5312 54.4688 47.3125C54.4688 47.099 54.6224 46.9427 54.9297 46.8438Z"/>
<path d="M49.1562 45.1484C47.1146 45.1484 46.0938 44.2161 46.0938 42.3516L46.0859 37.2266L45.1875 37.2656C44.9062 37.2656 44.7656 37.1589 44.7656 36.9453C44.7656 36.7318 44.9167 36.625 45.2188 36.625L45.9688 36.6562H46.0859V35.4453L49.4375 33.9453V36.6562H50.4844L51.2266 36.625C51.5339 36.625 51.6875 36.7344 51.6875 36.9531C51.6875 37.0521 51.6432 37.1302 51.5547 37.1875C51.4714 37.2396 51.375 37.2656 51.2656 37.2656L50.2969 37.2266H49.4375V44.5703C50.0469 44.5599 50.5547 44.3854 50.9609 44.0469C51.1536 43.901 51.2891 43.7135 51.3672 43.4844C51.4505 43.2552 51.5234 43.1094 51.5859 43.0469C51.6536 42.9792 51.7318 42.9453 51.8203 42.9453C51.9089 42.9453 51.9844 42.9818 52.0469 43.0547C52.1094 43.1224 52.1406 43.2057 52.1406 43.3047C52.1406 43.3984 52.1146 43.5052 52.0625 43.625C52.0104 43.7396 51.9323 43.862 51.8281 43.9922C51.5938 44.2839 51.3229 44.5156 51.0156 44.6875C50.4583 44.9948 49.8385 45.1484 49.1562 45.1484Z"/>
<path d="M37.0078 45.1484C35.1797 45.1484 34.2656 44.2552 34.2656 42.4688V36.6562H37.6094V44.3047C37.6615 44.3307 37.7266 44.3438 37.8047 44.3438H38.0625C38.4792 44.3438 38.974 44.0625 39.5469 43.5C39.7188 43.3281 39.8802 43.1406 40.0312 42.9375V36.6562H43.3906V45H40.0312V43.7969C39.1823 44.6979 38.1745 45.1484 37.0078 45.1484Z"/>
<path d="M28.4844 44.4844C27.8177 44.9271 27.0781 45.1484 26.2656 45.1484C25.1875 45.1484 24.3229 44.8776 23.6719 44.3359C22.9948 43.7786 22.6562 43.0052 22.6562 42.0156C22.6562 41.1406 22.9922 40.4219 23.6641 39.8594C24.3516 39.2917 25.2552 39.0078 26.375 39.0078C27.125 39.0078 27.8281 39.151 28.4844 39.4375V37.2891C28.0104 37.1536 27.5911 37.0859 27.2266 37.0859C26.8672 37.0859 26.5625 37.1016 26.3125 37.1328C26.0625 37.1641 25.8255 37.2109 25.6016 37.2734C25.1172 37.4089 24.75 37.5911 24.5 37.8203C24.3542 37.9557 24.2214 38.0234 24.1016 38.0234C23.9818 38.0234 23.8906 37.9948 23.8281 37.9375C23.7656 37.875 23.7344 37.8073 23.7344 37.7344C23.7344 37.6615 23.7474 37.5964 23.7734 37.5391C23.7995 37.4766 23.849 37.4141 23.9219 37.3516C24.0781 37.2161 24.3385 37.0807 24.7031 36.9453C25.4583 36.6589 26.2161 36.5156 26.9766 36.5156C29.2891 36.5156 30.7656 37.0677 31.4062 38.1719C31.6875 38.6615 31.8281 39.3047 31.8281 40.1016V45H28.4844V44.4844ZM28.4844 40.0469C27.8281 39.7292 27.1745 39.5703 26.5234 39.5703C26.4193 39.5703 26.3203 39.5781 26.2266 39.5938V44.5625C26.2526 44.5677 26.2812 44.5703 26.3125 44.5703C26.3438 44.5703 26.375 44.5703 26.4062 44.5703C27.1198 44.5703 27.8125 44.3177 28.4844 43.8125V40.0469Z"/>
<path d="M20.3516 43.1016C20.5547 43.1016 20.6562 43.1953 20.6562 43.3828C20.6562 43.5234 20.5651 43.6901 20.3828 43.8828C19.5599 44.7266 18.4323 45.1484 17 45.1484C15.7135 45.1484 14.6302 44.7604 13.75 43.9844C12.8385 43.1771 12.3828 42.1562 12.3828 40.9219C12.3828 39.6615 12.7943 38.625 13.6172 37.8125C14.487 36.9479 15.6432 36.5156 17.0859 36.5156C18.2422 36.5156 19.2135 36.8672 20 37.5703C20.849 38.3255 21.2734 39.3177 21.2734 40.5469C21.2734 40.724 21.2682 40.9115 21.2578 41.1094H16.1016V44.4609C16.4557 44.5339 16.8542 44.5703 17.2969 44.5703C18.2344 44.5703 19.0339 44.2604 19.6953 43.6406C19.8307 43.5052 19.9271 43.3984 19.9844 43.3203C20.1042 43.1745 20.2266 43.1016 20.3516 43.1016ZM18.2656 37.2344C17.9271 37.1354 17.5443 37.0859 17.1172 37.0859C16.6901 37.0859 16.3516 37.1146 16.1016 37.1719V40.5391H18.2656V37.2344Z"/>
<path d="M1.38281 33.9453C2.78906 33.9453 3.90625 33.9453 4.73438 33.9453C5.56771 33.9453 6.07292 33.9479 6.25 33.9531C7.02083 33.9896 7.5651 34.0807 7.88281 34.2266C8.20052 34.3672 8.45312 34.526 8.64062 34.7031C9.04167 35.099 9.24219 35.5781 9.24219 36.1406C9.24219 36.6979 9.04688 37.1875 8.65625 37.6094C8.53646 37.7396 8.39844 37.8516 8.24219 37.9453C9.09115 38.1016 9.78646 38.4583 10.3281 39.0156C10.9167 39.6198 11.2109 40.3568 11.2109 41.2266C11.2109 42.112 10.9375 42.875 10.3906 43.5156C9.625 44.401 8.44271 44.8854 6.84375 44.9688C6.4375 44.9896 6.03646 45 5.64062 45H1.38281V33.9453ZM6.50781 37.7891L6.90625 37.8359H7.03125C7.44271 37.8359 7.79948 37.6849 8.10156 37.3828C8.42448 37.0599 8.58594 36.6641 8.58594 36.1953C8.58594 35.6224 8.33854 35.1823 7.84375 34.875C7.59375 34.7188 7.34375 34.6276 7.09375 34.6016C6.84896 34.5703 6.65625 34.5495 6.51562 34.5391C6.22396 34.5182 5.84115 34.5078 5.36719 34.5078V44.4219H6.23438C7.11979 44.4219 7.84115 44.3125 8.39844 44.0938C9.0651 43.8646 9.59375 43.4948 9.98438 42.9844C10.3542 42.5 10.5391 41.9922 10.5391 41.4609C10.5391 40.9297 10.4609 40.4818 10.3047 40.1172C10.1484 39.7526 9.92188 39.4427 9.625 39.1875C9.02083 38.6615 8.17969 38.3984 7.10156 38.3984L6.5625 38.4453C6.39583 38.4453 6.27344 38.4115 6.19531 38.3438C6.11719 38.276 6.07812 38.1979 6.07812 38.1094C6.07812 37.8958 6.22135 37.7891 6.50781 37.7891Z"/>
<path d="M41.5391 27.1016C41.7422 27.1016 41.8438 27.1953 41.8438 27.3828C41.8438 27.5234 41.7526 27.6901 41.5703 27.8828C40.7474 28.7266 39.6198 29.1484 38.1875 29.1484C36.901 29.1484 35.8177 28.7604 34.9375 27.9844C34.026 27.1771 33.5703 26.1562 33.5703 24.9219C33.5703 23.6615 33.9818 22.625 34.8047 21.8125C35.6745 20.9479 36.8307 20.5156 38.2734 20.5156C39.4297 20.5156 40.401 20.8672 41.1875 21.5703C42.0365 22.3255 42.4609 23.3177 42.4609 24.5469C42.4609 24.724 42.4557 24.9115 42.4453 25.1094H37.2891V28.4609C37.6432 28.5339 38.0417 28.5703 38.4844 28.5703C39.4219 28.5703 40.2214 28.2604 40.8828 27.6406C41.0182 27.5052 41.1146 27.3984 41.1719 27.3203C41.2917 27.1745 41.4141 27.1016 41.5391 27.1016ZM39.4531 21.2344C39.1146 21.1354 38.7318 21.0859 38.3047 21.0859C37.8776 21.0859 37.5391 21.1146 37.2891 21.1719V24.5391H39.4531V21.2344Z"/>
<path d="M26.0078 22.8125C26.0182 22.9375 26.0234 23.0625 26.0234 23.1875V29H22.6719V21.4219C22.6146 21.3958 22.5469 21.3828 22.4688 21.3828H22.2188C21.8125 21.3828 21.3385 21.6615 20.7969 22.2188C20.6302 22.3906 20.4714 22.5807 20.3203 22.7891V29H16.9609V20.6562H20.3203V21.9141C21.2005 20.9818 22.1849 20.5156 23.2734 20.5156C24.6797 20.5156 25.5469 21.0365 25.875 22.0781C26.3229 21.5625 26.8151 21.1745 27.3516 20.9141C27.8932 20.6484 28.4375 20.5156 28.9844 20.5156C29.9167 20.5156 30.6068 20.737 31.0547 21.1797C31.5026 21.6224 31.7266 22.2917 31.7266 23.1875V29H28.375V21.4141C28.3281 21.3932 28.2109 21.3828 28.0234 21.3828C27.8359 21.3828 27.6615 21.4193 27.5 21.4922C27.3438 21.5599 27.1823 21.6562 27.0156 21.7812C26.651 22.0469 26.3151 22.3906 26.0078 22.8125Z"/>
<path d="M12.6797 19.2891C12.1432 19.2891 11.724 19.1693 11.4219 18.9297C11.1198 18.6901 10.9688 18.375 10.9688 17.9844C10.9688 17.6562 11.1354 17.375 11.4688 17.1406C11.8229 16.8906 12.1979 16.7656 12.5938 16.7656C12.9896 16.7656 13.2943 16.8047 13.5078 16.8828C13.7266 16.9609 13.9115 17.0625 14.0625 17.1875C14.3646 17.4427 14.5156 17.7396 14.5156 18.0781C14.5156 18.4167 14.3438 18.7031 14 18.9375C13.6562 19.1719 13.2161 19.2891 12.6797 19.2891ZM11.0391 20.6562H14.3984V29H11.0391V20.6562Z"/>
<path d="M9.40625 18.1484C9.40625 18.388 9.15365 18.5078 8.64844 18.5078H6.83594V29H2.83594V18.5078H1.66406C1.26302 18.5078 0.986979 18.526 0.835938 18.5625C0.638021 18.6042 0.494792 18.625 0.40625 18.625C0.140625 18.625 0.0078125 18.5208 0.0078125 18.3125C0.0078125 18.0677 0.265625 17.9453 0.78125 17.9453H7.75C8.10938 17.9453 8.375 17.9297 8.54688 17.8984C8.75521 17.862 8.91146 17.8438 9.01562 17.8438C9.27604 17.8438 9.40625 17.9453 9.40625 18.1484Z"/>
<path d="M30.0234 1.94531H33.3828V13H30.0234V1.94531Z"/>
<path d="M24.1016 1.94531H27.4609V13H24.1016V1.94531Z"/>
<path d="M19.8203 3.28906C19.2839 3.28906 18.8646 3.16927 18.5625 2.92969C18.2604 2.6901 18.1094 2.375 18.1094 1.98438C18.1094 1.65625 18.276 1.375 18.6094 1.14062C18.9635 0.890625 19.3385 0.765625 19.7344 0.765625C20.1302 0.765625 20.4349 0.804688 20.6484 0.882812C20.8672 0.960938 21.0521 1.0625 21.2031 1.1875C21.5052 1.44271 21.6562 1.73958 21.6562 2.07812C21.6562 2.41667 21.4844 2.70312 21.1406 2.9375C20.7969 3.17188 20.3568 3.28906 19.8203 3.28906ZM18.1797 4.65625H21.5391V13H18.1797V4.65625Z"/>
<path d="M13.8594 13.1484C11.8177 13.1484 10.7969 12.2161 10.7969 10.3516L10.7891 5.22656L9.89062 5.26562C9.60938 5.26562 9.46875 5.15885 9.46875 4.94531C9.46875 4.73177 9.61979 4.625 9.92188 4.625L10.6719 4.65625H10.7891V3.44531L14.1406 1.94531V4.65625H15.1875L15.9297 4.625C16.237 4.625 16.3906 4.73438 16.3906 4.95312C16.3906 5.05208 16.3464 5.13021 16.2578 5.1875C16.1745 5.23958 16.0781 5.26562 15.9688 5.26562L15 5.22656H14.1406V12.5703C14.75 12.5599 15.2578 12.3854 15.6641 12.0469C15.8568 11.901 15.9922 11.7135 16.0703 11.4844C16.1536 11.2552 16.2266 11.1094 16.2891 11.0469C16.3568 10.9792 16.4349 10.9453 16.5234 10.9453C16.612 10.9453 16.6875 10.9818 16.75 11.0547C16.8125 11.1224 16.8438 11.2057 16.8438 11.3047C16.8438 11.3984 16.8177 11.5052 16.7656 11.625C16.7135 11.7396 16.6354 11.862 16.5312 11.9922C16.2969 12.2839 16.026 12.5156 15.7188 12.6875C15.1615 12.9948 14.5417 13.1484 13.8594 13.1484Z"/>
<path d="M1.38281 12.4375C1.20052 12.3333 1.04167 12.224 0.90625 12.1094C0.776042 11.9948 0.710938 11.8724 0.710938 11.7422C0.710938 11.4922 0.817708 11.3672 1.03125 11.3672C1.17188 11.3672 1.32812 11.4453 1.5 11.6016C1.67188 11.7578 1.86458 11.8958 2.07812 12.0156C2.29167 12.1302 2.52344 12.2292 2.77344 12.3125C3.28906 12.4844 3.76562 12.5703 4.20312 12.5703C4.64062 12.5703 4.97656 12.5417 5.21094 12.4844C5.45052 12.4271 5.65104 12.349 5.8125 12.25C6.15625 12.0365 6.32812 11.763 6.32812 11.4297C6.32812 11.1224 6.17969 10.8125 5.88281 10.5C5.63281 10.2344 5.27865 9.91667 4.82031 9.54688L3.48438 8.5C2.14583 7.46875 1.35677 6.52604 1.11719 5.67188C1.03385 5.375 0.992188 5.04427 0.992188 4.67969C0.992188 4.3151 1.07292 3.95573 1.23438 3.60156C1.40104 3.2474 1.64583 2.9375 1.96875 2.67188C2.66146 2.09375 3.60417 1.80469 4.79688 1.80469C5.40625 1.80469 5.95312 1.89583 6.4375 2.07812C6.92188 2.25521 7.2526 2.41406 7.42969 2.55469C7.60677 2.69531 7.69531 2.82292 7.69531 2.9375C7.69531 3.17708 7.59635 3.29688 7.39844 3.29688C7.28385 3.29688 7.16146 3.23958 7.03125 3.125C6.90104 3.01042 6.75521 2.91146 6.59375 2.82812C6.4375 2.73958 6.25781 2.66146 6.05469 2.59375C5.61719 2.44792 5.1875 2.375 4.76562 2.375C3.98958 2.375 3.60156 2.63021 3.60156 3.14062C3.60156 3.35417 3.67188 3.55208 3.8125 3.73438C4.0625 4.05208 4.54948 4.50781 5.27344 5.10156C6.0026 5.6901 6.58594 6.20573 7.02344 6.64844C7.46615 7.09115 7.80208 7.48958 8.03125 7.84375C8.39583 8.40104 8.57812 8.98177 8.57812 9.58594C8.57812 10.1849 8.47135 10.6953 8.25781 11.1172C8.04948 11.5339 7.75521 11.8932 7.375 12.1953C6.57292 12.8307 5.57812 13.1484 4.39062 13.1484C3.20312 13.1484 2.20052 12.9115 1.38281 12.4375Z"/>
</g>
</svg>
