<svg style="width: 100%; height: auto;" viewBox="0 0 146 16" fill="none" xmlns="http://www.w3.org/2000/svg">
<g fill="#0d9488">
<path d="M139.742 14.8438C140.06 14.7448 140.281 14.6172 140.406 14.4609C140.583 14.2526 140.797 13.8776 141.047 13.3359L141.227 12.9219L136.969 4.65625H140.523L142.742 9.375L144.023 6.38281C144.258 5.83594 144.411 5.41927 144.484 5.13281C144.557 4.84635 144.628 4.67188 144.695 4.60938C144.768 4.54688 144.854 4.51562 144.953 4.51562C145.057 4.51562 145.138 4.54688 145.195 4.60938C145.253 4.67188 145.281 4.73438 145.281 4.79688C145.281 4.85938 145.273 4.92708 145.258 5C145.247 5.06771 145.221 5.16146 145.18 5.28125C145.143 5.39583 145.089 5.54167 145.016 5.71875L141.773 13.2344C141.388 14.1406 141.018 14.7786 140.664 15.1484C140.362 15.4766 140.055 15.6406 139.742 15.6406C139.435 15.6406 139.281 15.5312 139.281 15.3125C139.281 15.099 139.435 14.9427 139.742 14.8438Z"/>
<path d="M133.969 13.1484C131.927 13.1484 130.906 12.2161 130.906 10.3516L130.898 5.22656L130 5.26562C129.719 5.26562 129.578 5.15885 129.578 4.94531C129.578 4.73177 129.729 4.625 130.031 4.625L130.781 4.65625H130.898V3.44531L134.25 1.94531V4.65625H135.297L136.039 4.625C136.346 4.625 136.5 4.73438 136.5 4.95312C136.5 5.05208 136.456 5.13021 136.367 5.1875C136.284 5.23958 136.188 5.26562 136.078 5.26562L135.109 5.22656H134.25V12.5703C134.859 12.5599 135.367 12.3854 135.773 12.0469C135.966 11.901 136.102 11.7135 136.18 11.4844C136.263 11.2552 136.336 11.1094 136.398 11.0469C136.466 10.9792 136.544 10.9453 136.633 10.9453C136.721 10.9453 136.797 10.9818 136.859 11.0547C136.922 11.1224 136.953 11.2057 136.953 11.3047C136.953 11.3984 136.927 11.5052 136.875 11.625C136.823 11.7396 136.745 11.862 136.641 11.9922C136.406 12.2839 136.135 12.5156 135.828 12.6875C135.271 12.9948 134.651 13.1484 133.969 13.1484Z"/>
<path d="M121.82 13.1484C119.992 13.1484 119.078 12.2552 119.078 10.4688V4.65625H122.422V12.3047C122.474 12.3307 122.539 12.3438 122.617 12.3438H122.875C123.292 12.3438 123.786 12.0625 124.359 11.5C124.531 11.3281 124.693 11.1406 124.844 10.9375V4.65625H128.203V13H124.844V11.7969C123.995 12.6979 122.987 13.1484 121.82 13.1484Z"/>
<path d="M113.297 12.4844C112.63 12.9271 111.891 13.1484 111.078 13.1484C110 13.1484 109.135 12.8776 108.484 12.3359C107.807 11.7786 107.469 11.0052 107.469 10.0156C107.469 9.14062 107.805 8.42188 108.477 7.85938C109.164 7.29167 110.068 7.00781 111.188 7.00781C111.938 7.00781 112.641 7.15104 113.297 7.4375V5.28906C112.823 5.15365 112.404 5.08594 112.039 5.08594C111.68 5.08594 111.375 5.10156 111.125 5.13281C110.875 5.16406 110.638 5.21094 110.414 5.27344C109.93 5.40885 109.562 5.59115 109.312 5.82031C109.167 5.95573 109.034 6.02344 108.914 6.02344C108.794 6.02344 108.703 5.99479 108.641 5.9375C108.578 5.875 108.547 5.80729 108.547 5.73438C108.547 5.66146 108.56 5.59635 108.586 5.53906C108.612 5.47656 108.661 5.41406 108.734 5.35156C108.891 5.21615 109.151 5.08073 109.516 4.94531C110.271 4.65885 111.029 4.51562 111.789 4.51562C114.102 4.51562 115.578 5.06771 116.219 6.17188C116.5 6.66146 116.641 7.30469 116.641 8.10156V13H113.297V12.4844ZM113.297 8.04688C112.641 7.72917 111.987 7.57031 111.336 7.57031C111.232 7.57031 111.133 7.57812 111.039 7.59375V12.5625C111.065 12.5677 111.094 12.5703 111.125 12.5703C111.156 12.5703 111.188 12.5703 111.219 12.5703C111.932 12.5703 112.625 12.3177 113.297 11.8125V8.04688Z"/>
<path d="M105.164 11.1016C105.367 11.1016 105.469 11.1953 105.469 11.3828C105.469 11.5234 105.378 11.6901 105.195 11.8828C104.372 12.7266 103.245 13.1484 101.812 13.1484C100.526 13.1484 99.4427 12.7604 98.5625 11.9844C97.651 11.1771 97.1953 10.1562 97.1953 8.92188C97.1953 7.66146 97.6068 6.625 98.4297 5.8125C99.2995 4.94792 100.456 4.51562 101.898 4.51562C103.055 4.51562 104.026 4.86719 104.812 5.57031C105.661 6.32552 106.086 7.31771 106.086 8.54688C106.086 8.72396 106.081 8.91146 106.07 9.10938H100.914V12.4609C101.268 12.5339 101.667 12.5703 102.109 12.5703C103.047 12.5703 103.846 12.2604 104.508 11.6406C104.643 11.5052 104.74 11.3984 104.797 11.3203C104.917 11.1745 105.039 11.1016 105.164 11.1016ZM103.078 5.23438C102.74 5.13542 102.357 5.08594 101.93 5.08594C101.503 5.08594 101.164 5.11458 100.914 5.17188V8.53906H103.078V5.23438Z"/>
<path d="M86.1953 1.94531C87.6016 1.94531 88.7188 1.94531 89.5469 1.94531C90.3802 1.94531 90.8854 1.94792 91.0625 1.95312C91.8333 1.98958 92.3776 2.08073 92.6953 2.22656C93.013 2.36719 93.2656 2.52604 93.4531 2.70312C93.8542 3.09896 94.0547 3.57812 94.0547 4.14062C94.0547 4.69792 93.8594 5.1875 93.4688 5.60938C93.349 5.73958 93.2109 5.85156 93.0547 5.94531C93.9036 6.10156 94.599 6.45833 95.1406 7.01562C95.7292 7.61979 96.0234 8.35677 96.0234 9.22656C96.0234 10.112 95.75 10.875 95.2031 11.5156C94.4375 12.401 93.2552 12.8854 91.6562 12.9688C91.25 12.9896 90.849 13 90.4531 13H86.1953V1.94531ZM91.3203 5.78906L91.7188 5.83594H91.8438C92.2552 5.83594 92.612 5.6849 92.9141 5.38281C93.237 5.0599 93.3984 4.66406 93.3984 4.19531C93.3984 3.6224 93.151 3.18229 92.6562 2.875C92.4062 2.71875 92.1562 2.6276 91.9062 2.60156C91.6615 2.57031 91.4688 2.54948 91.3281 2.53906C91.0365 2.51823 90.6536 2.50781 90.1797 2.50781V12.4219H91.0469C91.9323 12.4219 92.6536 12.3125 93.2109 12.0938C93.8776 11.8646 94.4062 11.4948 94.7969 10.9844C95.1667 10.5 95.3516 9.99219 95.3516 9.46094C95.3516 8.92969 95.2734 8.48177 95.1172 8.11719C94.9609 7.7526 94.7344 7.44271 94.4375 7.1875C93.8333 6.66146 92.9922 6.39844 91.9141 6.39844L91.375 6.44531C91.2083 6.44531 91.0859 6.41146 91.0078 6.34375C90.9297 6.27604 90.8906 6.19792 90.8906 6.10938C90.8906 5.89583 91.0339 5.78906 91.3203 5.78906Z"/>
<path d="M79.6953 11.1016C79.8984 11.1016 80 11.1953 80 11.3828C80 11.5234 79.9089 11.6901 79.7266 11.8828C78.9036 12.7266 77.776 13.1484 76.3438 13.1484C75.0573 13.1484 73.974 12.7604 73.0938 11.9844C72.1823 11.1771 71.7266 10.1562 71.7266 8.92188C71.7266 7.66146 72.138 6.625 72.9609 5.8125C73.8307 4.94792 74.987 4.51562 76.4297 4.51562C77.5859 4.51562 78.5573 4.86719 79.3438 5.57031C80.1927 6.32552 80.6172 7.31771 80.6172 8.54688C80.6172 8.72396 80.612 8.91146 80.6016 9.10938H75.4453V12.4609C75.7995 12.5339 76.1979 12.5703 76.6406 12.5703C77.5781 12.5703 78.3776 12.2604 79.0391 11.6406C79.1745 11.5052 79.2708 11.3984 79.3281 11.3203C79.4479 11.1745 79.5703 11.1016 79.6953 11.1016ZM77.6094 5.23438C77.2708 5.13542 76.888 5.08594 76.4609 5.08594C76.0339 5.08594 75.6953 5.11458 75.4453 5.17188V8.53906H77.6094V5.23438Z"/>
<path d="M64.1641 6.8125C64.1745 6.9375 64.1797 7.0625 64.1797 7.1875V13H60.8281V5.42188C60.7708 5.39583 60.7031 5.38281 60.625 5.38281H60.375C59.9688 5.38281 59.4948 5.66146 58.9531 6.21875C58.7865 6.39062 58.6276 6.58073 58.4766 6.78906V13H55.1172V4.65625H58.4766V5.91406C59.3568 4.98177 60.3411 4.51562 61.4297 4.51562C62.8359 4.51562 63.7031 5.03646 64.0312 6.07812C64.4792 5.5625 64.9714 5.17448 65.5078 4.91406C66.0495 4.64844 66.5938 4.51562 67.1406 4.51562C68.0729 4.51562 68.763 4.73698 69.2109 5.17969C69.6589 5.6224 69.8828 6.29167 69.8828 7.1875V13H66.5312V5.41406C66.4844 5.39323 66.3672 5.38281 66.1797 5.38281C65.9922 5.38281 65.8177 5.41927 65.6562 5.49219C65.5 5.5599 65.3385 5.65625 65.1719 5.78125C64.8073 6.04688 64.4714 6.39062 64.1641 6.8125Z"/>
<path d="M50.8359 3.28906C50.2995 3.28906 49.8802 3.16927 49.5781 2.92969C49.276 2.6901 49.125 2.375 49.125 1.98438C49.125 1.65625 49.2917 1.375 49.625 1.14062C49.9792 0.890625 50.3542 0.765625 50.75 0.765625C51.1458 0.765625 51.4505 0.804688 51.6641 0.882812C51.8828 0.960938 52.0677 1.0625 52.2188 1.1875C52.5208 1.44271 52.6719 1.73958 52.6719 2.07812C52.6719 2.41667 52.5 2.70312 52.1562 2.9375C51.8125 3.17188 51.3724 3.28906 50.8359 3.28906ZM49.1953 4.65625H52.5547V13H49.1953V4.65625Z"/>
<path d="M47.5625 2.14844C47.5625 2.38802 47.3099 2.50781 46.8047 2.50781H44.9922V13H40.9922V2.50781H39.8203C39.4193 2.50781 39.1432 2.52604 38.9922 2.5625C38.7943 2.60417 38.651 2.625 38.5625 2.625C38.2969 2.625 38.1641 2.52083 38.1641 2.3125C38.1641 2.06771 38.4219 1.94531 38.9375 1.94531H45.9062C46.2656 1.94531 46.5312 1.92969 46.7031 1.89844C46.9115 1.86198 47.0677 1.84375 47.1719 1.84375C47.4323 1.84375 47.5625 1.94531 47.5625 2.14844Z"/>
<path d="M30.0234 1.94531H33.3828V13H30.0234V1.94531Z"/>
<path d="M24.1016 1.94531H27.4609V13H24.1016V1.94531Z"/>
<path d="M19.8203 3.28906C19.2839 3.28906 18.8646 3.16927 18.5625 2.92969C18.2604 2.6901 18.1094 2.375 18.1094 1.98438C18.1094 1.65625 18.276 1.375 18.6094 1.14062C18.9635 0.890625 19.3385 0.765625 19.7344 0.765625C20.1302 0.765625 20.4349 0.804688 20.6484 0.882812C20.8672 0.960938 21.0521 1.0625 21.2031 1.1875C21.5052 1.44271 21.6562 1.73958 21.6562 2.07812C21.6562 2.41667 21.4844 2.70312 21.1406 2.9375C20.7969 3.17188 20.3568 3.28906 19.8203 3.28906ZM18.1797 4.65625H21.5391V13H18.1797V4.65625Z"/>
<path d="M13.8594 13.1484C11.8177 13.1484 10.7969 12.2161 10.7969 10.3516L10.7891 5.22656L9.89062 5.26562C9.60938 5.26562 9.46875 5.15885 9.46875 4.94531C9.46875 4.73177 9.61979 4.625 9.92188 4.625L10.6719 4.65625H10.7891V3.44531L14.1406 1.94531V4.65625H15.1875L15.9297 4.625C16.237 4.625 16.3906 4.73438 16.3906 4.95312C16.3906 5.05208 16.3464 5.13021 16.2578 5.1875C16.1745 5.23958 16.0781 5.26562 15.9688 5.26562L15 5.22656H14.1406V12.5703C14.75 12.5599 15.2578 12.3854 15.6641 12.0469C15.8568 11.901 15.9922 11.7135 16.0703 11.4844C16.1536 11.2552 16.2266 11.1094 16.2891 11.0469C16.3568 10.9792 16.4349 10.9453 16.5234 10.9453C16.612 10.9453 16.6875 10.9818 16.75 11.0547C16.8125 11.1224 16.8438 11.2057 16.8438 11.3047C16.8438 11.3984 16.8177 11.5052 16.7656 11.625C16.7135 11.7396 16.6354 11.862 16.5312 11.9922C16.2969 12.2839 16.026 12.5156 15.7188 12.6875C15.1615 12.9948 14.5417 13.1484 13.8594 13.1484Z"/>
<path d="M1.38281 12.4375C1.20052 12.3333 1.04167 12.224 0.90625 12.1094C0.776042 11.9948 0.710938 11.8724 0.710938 11.7422C0.710938 11.4922 0.817708 11.3672 1.03125 11.3672C1.17188 11.3672 1.32812 11.4453 1.5 11.6016C1.67188 11.7578 1.86458 11.8958 2.07812 12.0156C2.29167 12.1302 2.52344 12.2292 2.77344 12.3125C3.28906 12.4844 3.76562 12.5703 4.20312 12.5703C4.64062 12.5703 4.97656 12.5417 5.21094 12.4844C5.45052 12.4271 5.65104 12.349 5.8125 12.25C6.15625 12.0365 6.32812 11.763 6.32812 11.4297C6.32812 11.1224 6.17969 10.8125 5.88281 10.5C5.63281 10.2344 5.27865 9.91667 4.82031 9.54688L3.48438 8.5C2.14583 7.46875 1.35677 6.52604 1.11719 5.67188C1.03385 5.375 0.992188 5.04427 0.992188 4.67969C0.992188 4.3151 1.07292 3.95573 1.23438 3.60156C1.40104 3.2474 1.64583 2.9375 1.96875 2.67188C2.66146 2.09375 3.60417 1.80469 4.79688 1.80469C5.40625 1.80469 5.95312 1.89583 6.4375 2.07812C6.92188 2.25521 7.2526 2.41406 7.42969 2.55469C7.60677 2.69531 7.69531 2.82292 7.69531 2.9375C7.69531 3.17708 7.59635 3.29688 7.39844 3.29688C7.28385 3.29688 7.16146 3.23958 7.03125 3.125C6.90104 3.01042 6.75521 2.91146 6.59375 2.82812C6.4375 2.73958 6.25781 2.66146 6.05469 2.59375C5.61719 2.44792 5.1875 2.375 4.76562 2.375C3.98958 2.375 3.60156 2.63021 3.60156 3.14062C3.60156 3.35417 3.67188 3.55208 3.8125 3.73438C4.0625 4.05208 4.54948 4.50781 5.27344 5.10156C6.0026 5.6901 6.58594 6.20573 7.02344 6.64844C7.46615 7.09115 7.80208 7.48958 8.03125 7.84375C8.39583 8.40104 8.57812 8.98177 8.57812 9.58594C8.57812 10.1849 8.47135 10.6953 8.25781 11.1172C8.04948 11.5339 7.75521 11.8932 7.375 12.1953C6.57292 12.8307 5.57812 13.1484 4.39062 13.1484C3.20312 13.1484 2.20052 12.9115 1.38281 12.4375Z"/>
</g>
</svg>
